<svg enable-background="new 0 0 48 48" viewBox="0 0 512 512" xmlns="http://www.w3.org/2000/svg">
<path fill-rule="evenodd" clip-rule="evenodd" d="M67.8879 62.464C51.3194 62.464 37.8879 75.8954 37.8879 92.464V419.865C37.8879 436.433 51.3194 449.865 67.8879 449.865H163.661C175.084 449.865 185.869 448.939 196.016 447.087C208.621 444.786 216.729 433.114 216.729 420.3V408.222C216.729 391.654 230.161 378.222 246.729 378.222H267.341C279.174 378.222 290.229 371.333 293.192 359.877C295.993 349.047 297.393 337.472 297.393 325.154V186.645C297.393 161.525 291.733 139.767 280.412 121.37C269.444 102.619 253.877 88.1138 233.711 77.8539C213.899 67.594 190.549 62.464 163.661 62.464H67.8879ZM163.661 375.569H147.491C130.922 375.569 117.491 362.137 117.491 345.569V166.76C117.491 150.192 130.922 136.76 147.491 136.76H163.661C179.935 136.76 193.025 141.359 202.931 150.558C212.837 159.756 217.791 171.785 217.791 186.645V325.154C217.791 340.367 212.837 352.572 202.931 361.771C193.025 370.97 179.935 375.569 163.661 375.569Z" fill="white"/>
<path d="M247.256 449.439C234.553 449.439 224.256 439.141 224.256 426.439V408.951C224.256 396.248 234.553 385.951 247.256 385.951H451.112C463.814 385.951 474.112 396.248 474.112 408.951V426.439C474.112 439.141 463.814 449.439 451.112 449.439H247.256Z" fill="white"/>
</svg>
